<?xml version="1.0" encoding="utf-8"?>
<!-- Generator: Adobe Illustrator 25.3.1, SVG Export Plug-In . SVG Version: 6.00 Build 0)  -->
<svg version="1.1" id="Layer_1" xmlns="http://www.w3.org/2000/svg" xmlns:xlink="http://www.w3.org/1999/xlink" x="0px" y="0px"
	 viewBox="0 0 50 50" style="enable-background:new 0 0 50 50;" xml:space="preserve">
<style type="text/css">
	.st0{fill:#3E3E3E;}
</style>
<path class="st0" d="M6.7,17v5.9l4.1-5.9h6L12,23.3l5.3,9.6H11l-3-5.9l-1.3,1.8v4.2H1.2V17H6.7z"/>
<path class="st0" d="M39.9,17v15.8H35v-5.5l0.1-5.3H35l-3.1,10.8h-4.5l-3-10.8h-0.1l0.1,5.3v5.5h-4.9V17h7.8l1.8,7l0.7,3h0l0.7-3
	l1.8-7H39.9z"/>
<path class="st0" d="M45.9,27.9c0.9,0,1.7,0.2,2.2,0.7s0.8,1.1,0.8,1.9s-0.3,1.4-0.8,1.9c-0.5,0.4-1.2,0.7-2.2,0.7
	c-0.9,0-1.7-0.2-2.2-0.7c-0.5-0.4-0.8-1.1-0.8-1.9s0.3-1.4,0.8-1.9C44.2,28.1,45,27.9,45.9,27.9z"/>
</svg>
