<svg width="163" height="22" viewBox="0 0 163 22" fill="none" xmlns="http://www.w3.org/2000/svg">
<path d="M5.592 5.28V11.184L9.72 5.28H15.672L10.824 11.568L16.104 21.12H9.84L6.888 15.192L5.592 16.968V21.12H0V5.28H5.592Z" fill="#f3f3f3"/>
<path d="M22.9451 5.28V21.12H17.3531V5.28H22.9451Z" fill="#f3f3f3"/>
<path d="M40.2793 5.28V9.384H35.3353V21.12H29.7433V9.384H24.7753V5.28H40.2793Z" fill="#f3f3f3"/>
<path d="M54.8824 5.28V9.384H49.9384V21.12H44.3464V9.384H39.3784V5.28H54.8824Z" fill="#f3f3f3"/>
<path d="M62.2936 5.28V21.12H56.7016V5.28H62.2936Z" fill="#f3f3f3"/>
<path d="M91.3458 5.28V21.12H86.4738V15.624L86.5458 10.296H86.4738L83.4018 21.12H78.9378L75.9138 10.296H75.8178L75.8898 15.624V21.12H70.9938V5.28H78.8178L80.6418 12.312L81.3378 15.264H81.3858L82.0818 12.312L83.9058 5.28H91.3458Z" fill="#f3f3f3"/>
<path d="M109.902 5.28V14.304C109.902 19.008 107.35 21.36 102.246 21.36C97.1416 21.36 94.5896 19.008 94.5896 14.304V5.28H100.206V14.736C100.206 16.352 100.886 17.16 102.246 17.16C103.622 17.16 104.31 16.352 104.31 14.736V5.28H109.902ZM99.3656 0C100.166 0 100.782 0.192 101.214 0.576C101.662 0.944 101.886 1.48 101.886 2.184C101.886 2.872 101.662 3.408 101.214 3.792C100.782 4.176 100.166 4.368 99.3656 4.368C98.5816 4.368 97.9736 4.176 97.5416 3.792C97.1256 3.408 96.9176 2.872 96.9176 2.184C96.9176 1.48 97.1256 0.944 97.5416 0.576C97.9736 0.192 98.5816 0 99.3656 0ZM105.054 0C105.854 0 106.47 0.192 106.902 0.576C107.35 0.944 107.574 1.48 107.574 2.184C107.574 2.872 107.35 3.408 106.902 3.792C106.47 4.176 105.854 4.368 105.054 4.368C104.27 4.368 103.662 4.176 103.23 3.792C102.814 3.408 102.606 2.872 102.606 2.184C102.606 1.48 102.814 0.944 103.23 0.576C103.662 0.192 104.27 0 105.054 0Z" fill="#f3f3f3"/>
<path d="M121.729 5.28C123.794 5.28 125.378 5.744 126.481 6.672C127.585 7.584 128.137 8.8 128.137 10.32C128.137 12.704 127.146 14.28 125.161 15.048L129.025 21.12H122.953L120.146 15.864H118.609V21.12H113.137V5.28H121.729ZM120.77 12.192C121.362 12.192 121.801 12.088 122.09 11.88C122.394 11.656 122.546 11.272 122.546 10.728C122.546 10.2 122.394 9.824 122.09 9.6C121.801 9.376 121.362 9.264 120.77 9.264H118.609V12.192H120.77Z" fill="#f3f3f3"/>
<path d="M136.951 5.28V11.184L141.079 5.28H147.031L142.183 11.568L147.463 21.12H141.199L138.247 15.192L136.951 16.968V21.12H131.359V5.28H136.951Z" fill="#f3f3f3"/>
<path d="M155.455 17.016H162.631V21.12H149.863V5.28H155.455V17.016Z" fill="#f3f3f3"/>
</svg>
